<?xml version="1.0" encoding="UTF-8" standalone="no"?>
<!-- Created with Inkscape (http://www.inkscape.org/) -->

<svg
   xmlns:dc="http://purl.org/dc/elements/1.1/"
   xmlns:cc="http://creativecommons.org/ns#"
   xmlns:rdf="http://www.w3.org/1999/02/22-rdf-syntax-ns#"
   xmlns:svg="http://www.w3.org/2000/svg"
   xmlns="http://www.w3.org/2000/svg"
   xmlns:sodipodi="http://sodipodi.sourceforge.net/DTD/sodipodi-0.dtd"
   xmlns:inkscape="http://www.inkscape.org/namespaces/inkscape"
   version="1.1"
   id="svg855"
   xml:space="preserve"
   width="800"
   height="800"
   viewBox="0 0 800 800"
   sodipodi:docname="logo-19-publicdomainvectors.org.svg"
   inkscape:version="0.92.4 (5da689c313, 2019-01-14)"><metadata
     id="metadata861"><rdf:RDF><cc:Work
         rdf:about=""><dc:format>image/svg+xml</dc:format><dc:type
           rdf:resource="http://purl.org/dc/dcmitype/StillImage" /><dc:title></dc:title></cc:Work></rdf:RDF></metadata><defs
     id="defs859"><clipPath
       clipPathUnits="userSpaceOnUse"
       id="clipPath871"><path
         d="M 0,600 H 600 V 0 H 0 Z"
         id="path869"
         inkscape:connector-curvature="0" /></clipPath><radialGradient
       fx="0"
       fy="0"
       cx="0"
       cy="0"
       r="1"
       gradientUnits="userSpaceOnUse"
       gradientTransform="matrix(237.15981,73.943955,-98.360855,178.28706,371.15039,319.3833)"
       spreadMethod="pad"
       id="radialGradient891"><stop
         style="stop-opacity:1;stop-color:#ffffff"
         offset="0"
         id="stop885" /><stop
         style="stop-opacity:1;stop-color:#ec008c"
         offset="0.52"
         id="stop887" /><stop
         style="stop-opacity:1;stop-color:#7c0755"
         offset="1"
         id="stop889" /></radialGradient></defs><sodipodi:namedview
     pagecolor="#ffffff"
     bordercolor="#666666"
     borderopacity="1"
     objecttolerance="10"
     gridtolerance="10"
     guidetolerance="10"
     inkscape:pageopacity="0"
     inkscape:pageshadow="2"
     inkscape:window-width="1920"
     inkscape:window-height="1018"
     id="namedview857"
     showgrid="false"
     inkscape:zoom="0.295"
     inkscape:cx="400"
     inkscape:cy="400"
     inkscape:window-x="-8"
     inkscape:window-y="-8"
     inkscape:window-maximized="1"
     inkscape:current-layer="g863" /><g
     id="g863"
     inkscape:groupmode="layer"
     inkscape:label="logo-19-publicdomainvectors.org"
     transform="matrix(1.3333333,0,0,-1.3333333,0,800)"><g
       id="g865"><g
         id="g867"
         clip-path="url(#clipPath871)"><g
           id="g873"><g
             id="g875"><g
               id="g881"><g
                 id="g883"><path
                   d="m 360.495,121.696 c -7.688,-10.218 -11.917,-10.512 -11.371,1.225 0.616,12.328 6.928,31.392 15.862,40.68 8.221,8.483 14.24,4.856 12.436,-6.479 -1.749,-10.819 -9.845,-25.972 -16.927,-35.426 m -28.293,-48.5 c -6.492,-15.593 -9.126,-20.189 -10.783,-7.592 -0.866,6.662 -1.009,16.32 0.364,26.221 1.353,9.734 4.256,19.556 8.53,26.837 7.962,13.489 16.353,12.467 15.947,0.031 -0.422,-11.802 -8.111,-31.177 -14.058,-45.497 m 64.865,122.894 c -7.574,-5.737 -12.822,-1.021 -12.564,11.932 0.319,13.556 7.233,29.311 16.112,33.747 8.097,3.996 13.645,-3.65 12.102,-15.88 -1.504,-11.695 -8.713,-24.515 -15.65,-29.799 m -31.984,-27.868 c -9.14,-9.129 -16.691,-6.578 -18.707,7.661 -2.055,14.954 4.276,35.175 15.65,43.115 10.398,7.183 19.4,0.44 19.296,-13.266 -0.145,-13.061 -7.886,-29.098 -16.239,-37.51 M 329.54,123.698 c -8.958,-14.59 -17.263,-16.155 -22.929,-0.894 -5.855,16.024 -3.597,42.231 8.873,55.913 11.528,12.535 24.777,8.422 27.174,-6.642 2.222,-14.336 -4.917,-34.95 -13.118,-48.377 M 430.531,258.82 c -6.731,-2.275 -11.559,6.166 -11.154,19.951 0.466,14.37 7.101,27.496 14.994,28.223 7.21,0.565 11.763,-10.076 10.196,-22.874 -1.526,-12.285 -7.872,-23.211 -14.036,-25.3 m -29.822,-12.055 c -9.075,-4.234 -17.158,3.616 -18.834,19.08 -1.674,16.143 5.584,32.718 16.696,35.394 10.096,2.331 18.127,-8.714 17.859,-23.276 -0.299,-13.916 -7.505,-27.294 -15.721,-31.198 m -39.422,-22.212 c -11.708,-7.756 -23.956,-2.141 -28.998,14.626 -5.154,17.463 1.734,38.925 16.741,45.554 13.653,5.88 26.825,-4.305 28.837,-20.619 1.855,-15.588 -5.971,-32.47 -16.58,-39.561 m -47.866,-39.891 c -12.934,-13.564 -28.19,-12.793 -37.803,4.212 -9.714,17.425 -6.664,44.939 10.579,58.567 15.944,12.453 35.404,5.839 41.062,-11.681 5.319,-16.842 -1.975,-38.594 -13.838,-51.098 m 147.03,127.564 c -5.698,0.388 -9.656,11.55 -8.959,25.844 0.771,14.863 6.882,25.916 13.529,23.83 6.167,-2.009 9.607,-14.837 7.895,-27.978 -1.64,-12.645 -7.219,-22.014 -12.465,-21.696 m -25.896,-10e-4 c -8.052,-0.469 -15.243,11.313 -16.323,27.588 -1.051,16.925 6.086,30.638 15.826,29.227 8.968,-1.387 15.487,-15.579 14.888,-30.638 -0.609,-14.457 -7.058,-25.712 -14.391,-26.177 m -36.53,-5.063 c -11.406,-2.391 -23.446,8.845 -27.483,26.926 -4.135,18.783 3.961,36.332 18.233,37.112 13.001,0.565 24.452,-14.369 25.785,-31.499 1.246,-16.437 -6.249,-30.29 -16.535,-32.539 M 347.29,291.213 c -15.46,-6.446 -33.569,1.543 -41.935,20.298 -8.45,19.255 -0.618,42.435 18.984,48.45 17.837,5.361 36.459,-8.119 40.999,-27.04 4.31,-18.196 -4.111,-35.837 -18.048,-41.708 m -64.462,-37.24 c -17.744,-13.671 -39.26,-13.361 -51.792,3.43 -6.138,8.322 -8.406,19.279 -6.611,30.491 1.9,11.659 8.238,23.689 19.088,31.791 19.895,14.692 46.153,7.613 55.172,-11.545 8.683,-18.721 0.442,-41.584 -15.857,-54.167 m 204.183,104.149 c -4.676,2.384 -7.695,15.566 -6.666,30.128 1.092,15.105 6.618,24.467 12.063,20.303 5.154,-3.95 7.531,-18.343 5.672,-31.656 -1.78,-12.823 -6.692,-20.974 -11.069,-18.775 m -21.691,9.14 c -6.746,2.386 -12.698,16.987 -13.12,33.727 -0.4,17.378 6.219,28.687 14.365,24.323 7.631,-4.155 12.597,-20.566 11.65,-35.894 -0.937,-14.734 -6.613,-24.271 -12.895,-22.156 m -31.57,7.924 c -9.962,1.691 -20.466,17.203 -23.403,36.164 -2.967,19.707 5.059,33.973 17.389,30.232 11.445,-3.598 20.691,-21.867 21.319,-39.492 0.575,-16.912 -6.156,-28.377 -15.305,-26.904 m -46.312,2.9 c -14.633,-0.51 -31.805,13.832 -38.64,34.309 -6.947,21.107 2.408,40.038 20.743,39.256 16.867,-0.789 32.746,-19.749 36.113,-39.657 3.14,-19.116 -4.936,-33.415 -18.216,-33.908 m -65.944,-10.903 c -20.151,-5.906 -44.516,2.278 -56.058,21.738 -11.497,19.631 -2.772,45.462 21.756,52.749 22.376,6.596 47.393,-8.955 54.862,-30.089 7.149,-20.513 -2.383,-38.93 -20.56,-44.398 m -82.395,-41.035 c -21.842,-16.312 -46.164,-21.115 -59.639,-6.917 -6.411,6.871 -8.956,17.671 -7.334,29.906 1.704,12.758 7.884,27.213 19.595,38.318 21.464,20.279 53.48,16.591 65.433,-2.643 11.781,-19.2 2.027,-43.544 -18.055,-58.664 m 271.498,71.807 c -3.783,3.899 -5.883,18.522 -4.547,33.169 1.389,15.17 6.293,23.157 10.719,17.46 4.157,-5.445 5.687,-20.895 3.675,-34.238 -1.945,-12.889 -6.282,-20.04 -9.847,-16.391 m -17.77,16.027 c -5.513,4.438 -10.13,21.128 -9.962,38.044 0.18,17.545 6.162,26.983 12.818,20.431 6.28,-6.238 9.918,-24.139 8.626,-39.531 -1.244,-14.825 -6.256,-23.03 -11.482,-18.944 m -26.332,17.602 c -8.327,4.661 -16.901,23.328 -18.802,42.767 -1.88,20.156 5.554,31.729 15.786,24.717 9.653,-6.712 16.779,-27.24 16.762,-45.043 -0.065,-17.103 -5.964,-26.766 -13.746,-22.441 m -39.682,17.147 c -12.619,4.064 -27.478,23.396 -32.683,45.079 -5.281,22.383 4.049,37.434 19.799,31.436 14.81,-5.808 27.548,-28.478 29.775,-48.909 2.034,-19.632 -5.153,-31.277 -16.891,-27.606 m -59.546,10.722 c -18.78,0.993 -42.038,17.132 -51.897,39.264 -9.936,22.545 0.941,43.591 24.039,42.491 21.538,-1.201 42.898,-23.549 48.674,-46.084 5.515,-21.801 -3.567,-36.487 -20.816,-35.671 m -84.065,-10.201 c -25.017,-7.471 -54.61,-2.752 -68.48,15.539 -6.78,9.019 -8.001,20.229 -4.026,31.236 4.078,11.284 13.448,22.343 27.796,28.208 26.149,10.652 57.893,-4.181 68.387,-26.53 10.164,-22.006 -0.928,-41.608 -23.677,-48.453 m -77.784,9.47 c -6.885,8.649 -18.926,12.795 -31.984,10.163 -12.745,-2.641 -26.117,-12.048 -35.736,-26.392 -10.552,-15.734 -15.088,-33.387 -15.869,-47.535 -0.765,-13.532 1.942,-24.01 7.604,-28.692 12.273,-9.869 34.14,4.194 57.351,26.836 21.4,20.995 32.552,47.902 18.634,65.62"
                   style="fill:url(#radialGradient891);stroke:none"
                   id="path893"
                   inkscape:connector-curvature="0" /></g></g></g></g></g></g></g></svg>